<svg width="320" height="180"><g transform="translate(37.333333333333336,20.666666666666668)"><text x="10" y="-5" fill="black" font-weight="700">CHN</text><text x="160" y="0" fill="black" font-size="12"></text><path d="M78,0L86.667,5.16M112.667,4.495L121.333,0M190.667,53.789L199.333,63.287L208,72.522L216.667,86.728L225.333,92.546L234,89.857L242.667,67.224L251.333,80.043L260,85.662L268.667,96.854" fill="none" stroke="#998ec3" stroke-width="3"></path><!--<Area>--><path d="M78,139.333L86.667,134.173M112.667,134.839L121.333,139.333M190.667,85.544L199.333,76.046L208,66.811L216.667,52.605L225.333,46.787L234,49.476L242.667,72.109L251.333,59.291L260,53.672L268.667,42.48" fill="none" stroke="#f1a340" stroke-width="3"></path><!--<Area>--><line x1="8.666666666666668" x2="8.666666666666668" y1="139.33333333333334" y2="147.33333333333334" stroke="black" class="s-wk7FLxcdhoYp"></line> <text x="8.666666666666668" y="139.33333333333334" dy="8" dominant-baseline="hanging" text-anchor="middle" fill="black" class="s-wk7FLxcdhoYp">1900</text><line x1="52" x2="52" y1="139.33333333333334" y2="147.33333333333334" stroke="black" class="s-wk7FLxcdhoYp"></line> <text x="52" y="139.33333333333334" dy="8" dominant-baseline="hanging" text-anchor="middle" fill="black" class="s-wk7FLxcdhoYp">1920</text><line x1="95.33333333333334" x2="95.33333333333334" y1="139.33333333333334" y2="147.33333333333334" stroke="black" class="s-wk7FLxcdhoYp"></line> <text x="95.33333333333334" y="139.33333333333334" dy="8" dominant-baseline="hanging" text-anchor="middle" fill="black" class="s-wk7FLxcdhoYp">1940</text><line x1="138.66666666666669" x2="138.66666666666669" y1="139.33333333333334" y2="147.33333333333334" stroke="black" class="s-wk7FLxcdhoYp"></line> <text x="138.66666666666669" y="139.33333333333334" dy="8" dominant-baseline="hanging" text-anchor="middle" fill="black" class="s-wk7FLxcdhoYp">1960</text><line x1="182" x2="182" y1="139.33333333333334" y2="147.33333333333334" stroke="black" class="s-wk7FLxcdhoYp"></line> <text x="182" y="139.33333333333334" dy="8" dominant-baseline="hanging" text-anchor="middle" fill="black" class="s-wk7FLxcdhoYp">1980</text><line x1="225.33333333333337" x2="225.33333333333337" y1="139.33333333333334" y2="147.33333333333334" stroke="black" class="s-wk7FLxcdhoYp"></line> <text x="225.33333333333337" y="139.33333333333334" dy="8" dominant-baseline="hanging" text-anchor="middle" fill="black" class="s-wk7FLxcdhoYp">2000</text><line x1="268.6666666666667" x2="268.6666666666667" y1="139.33333333333334" y2="147.33333333333334" stroke="black" class="s-wk7FLxcdhoYp"></line> <text x="268.6666666666667" y="139.33333333333334" dy="8" dominant-baseline="hanging" text-anchor="middle" fill="black" class="s-wk7FLxcdhoYp">2020</text><!--<Xaxis>--><text x="0" dx="-14" y="139.33333333333334" text-anchor="end" dominant-baseline="middle" fill="black" class="s-ZWQcE3W-YIrP">0</text> <line x1="-8" x2="0" y1="139.33333333333334" y2="139.33333333333334" stroke="black" class="s-ZWQcE3W-YIrP"></line><text x="0" dx="-14" y="111.46666666666668" text-anchor="end" dominant-baseline="middle" fill="black" class="s-ZWQcE3W-YIrP">20</text> <line x1="-8" x2="0" y1="111.46666666666668" y2="111.46666666666668" stroke="black" class="s-ZWQcE3W-YIrP"></line><text x="0" dx="-14" y="83.60000000000001" text-anchor="end" dominant-baseline="middle" fill="black" class="s-ZWQcE3W-YIrP">40</text> <line x1="-8" x2="0" y1="83.60000000000001" y2="83.60000000000001" stroke="black" class="s-ZWQcE3W-YIrP"></line><text x="0" dx="-14" y="55.73333333333334" text-anchor="end" dominant-baseline="middle" fill="black" class="s-ZWQcE3W-YIrP">60</text> <line x1="-8" x2="0" y1="55.73333333333334" y2="55.73333333333334" stroke="black" class="s-ZWQcE3W-YIrP"></line><text x="0" dx="-14" y="27.866666666666664" text-anchor="end" dominant-baseline="middle" fill="black" class="s-ZWQcE3W-YIrP">80</text> <line x1="-8" x2="0" y1="27.866666666666664" y2="27.866666666666664" stroke="black" class="s-ZWQcE3W-YIrP"></line><text x="0" dx="-14" y="0" text-anchor="end" dominant-baseline="middle" fill="black" class="s-ZWQcE3W-YIrP">100</text> <line x1="-8" x2="0" y1="0" y2="0" stroke="black" class="s-ZWQcE3W-YIrP"></line><!--<Yaxis>--></g></svg>