<svg width="320" height="180"><g transform="translate(37.333333333333336,20.666666666666668)"><text x="10" y="-5" fill="black" font-weight="700">FRA</text><text x="160" y="0" fill="black" font-size="12"></text><path d="M0,0L8.667,2.761M26,2.58L34.667,1.161M52,3.728L60.667,11.147L69.333,17.535L78,8.117L86.667,7.625M112.667,16.314L121.333,17.63L130,18.307L138.667,16.392L147.333,20.193L156,21.597L164.667,18.414L173.333,19.615L182,26.485L190.667,28.686L199.333,38.762L208,40.279L216.667,47.532L225.333,51.835L234,51.119L242.667,54.561L251.333,61.066L260,59.359L268.667,61.6" fill="none" stroke="#998ec3" stroke-width="3"></path><!--<Area>--><path d="M0,139.333L8.667,136.572M26,136.753L34.667,138.172M52,135.605L60.667,139.333L69.333,121.798L78,131.217L86.667,131.708M112.667,123.019L121.333,121.703L130,121.027L138.667,122.941L147.333,119.14L156,117.737L164.667,120.919L173.333,119.718L182,112.848L190.667,110.647L199.333,100.571L208,99.054L216.667,91.802L225.333,87.498L234,88.214L242.667,84.772L251.333,78.267L260,79.974L268.667,77.733" fill="none" stroke="#f1a340" stroke-width="3"></path><!--<Area>--><line x1="8.666666666666668" x2="8.666666666666668" y1="139.33333333333334" y2="147.33333333333334" stroke="black" class="s-wk7FLxcdhoYp"></line> <text x="8.666666666666668" y="139.33333333333334" dy="8" dominant-baseline="hanging" text-anchor="middle" fill="black" class="s-wk7FLxcdhoYp">1900</text><line x1="52" x2="52" y1="139.33333333333334" y2="147.33333333333334" stroke="black" class="s-wk7FLxcdhoYp"></line> <text x="52" y="139.33333333333334" dy="8" dominant-baseline="hanging" text-anchor="middle" fill="black" class="s-wk7FLxcdhoYp">1920</text><line x1="95.33333333333334" x2="95.33333333333334" y1="139.33333333333334" y2="147.33333333333334" stroke="black" class="s-wk7FLxcdhoYp"></line> <text x="95.33333333333334" y="139.33333333333334" dy="8" dominant-baseline="hanging" text-anchor="middle" fill="black" class="s-wk7FLxcdhoYp">1940</text><line x1="138.66666666666669" x2="138.66666666666669" y1="139.33333333333334" y2="147.33333333333334" stroke="black" class="s-wk7FLxcdhoYp"></line> <text x="138.66666666666669" y="139.33333333333334" dy="8" dominant-baseline="hanging" text-anchor="middle" fill="black" class="s-wk7FLxcdhoYp">1960</text><line x1="182" x2="182" y1="139.33333333333334" y2="147.33333333333334" stroke="black" class="s-wk7FLxcdhoYp"></line> <text x="182" y="139.33333333333334" dy="8" dominant-baseline="hanging" text-anchor="middle" fill="black" class="s-wk7FLxcdhoYp">1980</text><line x1="225.33333333333337" x2="225.33333333333337" y1="139.33333333333334" y2="147.33333333333334" stroke="black" class="s-wk7FLxcdhoYp"></line> <text x="225.33333333333337" y="139.33333333333334" dy="8" dominant-baseline="hanging" text-anchor="middle" fill="black" class="s-wk7FLxcdhoYp">2000</text><line x1="268.6666666666667" x2="268.6666666666667" y1="139.33333333333334" y2="147.33333333333334" stroke="black" class="s-wk7FLxcdhoYp"></line> <text x="268.6666666666667" y="139.33333333333334" dy="8" dominant-baseline="hanging" text-anchor="middle" fill="black" class="s-wk7FLxcdhoYp">2020</text><!--<Xaxis>--><text x="0" dx="-14" y="139.33333333333334" text-anchor="end" dominant-baseline="middle" fill="black" class="s-ZWQcE3W-YIrP">0</text> <line x1="-8" x2="0" y1="139.33333333333334" y2="139.33333333333334" stroke="black" class="s-ZWQcE3W-YIrP"></line><text x="0" dx="-14" y="111.46666666666668" text-anchor="end" dominant-baseline="middle" fill="black" class="s-ZWQcE3W-YIrP">20</text> <line x1="-8" x2="0" y1="111.46666666666668" y2="111.46666666666668" stroke="black" class="s-ZWQcE3W-YIrP"></line><text x="0" dx="-14" y="83.60000000000001" text-anchor="end" dominant-baseline="middle" fill="black" class="s-ZWQcE3W-YIrP">40</text> <line x1="-8" x2="0" y1="83.60000000000001" y2="83.60000000000001" stroke="black" class="s-ZWQcE3W-YIrP"></line><text x="0" dx="-14" y="55.73333333333334" text-anchor="end" dominant-baseline="middle" fill="black" class="s-ZWQcE3W-YIrP">60</text> <line x1="-8" x2="0" y1="55.73333333333334" y2="55.73333333333334" stroke="black" class="s-ZWQcE3W-YIrP"></line><text x="0" dx="-14" y="27.866666666666664" text-anchor="end" dominant-baseline="middle" fill="black" class="s-ZWQcE3W-YIrP">80</text> <line x1="-8" x2="0" y1="27.866666666666664" y2="27.866666666666664" stroke="black" class="s-ZWQcE3W-YIrP"></line><text x="0" dx="-14" y="0" text-anchor="end" dominant-baseline="middle" fill="black" class="s-ZWQcE3W-YIrP">100</text> <line x1="-8" x2="0" y1="0" y2="0" stroke="black" class="s-ZWQcE3W-YIrP"></line><!--<Yaxis>--></g></svg>