<svg width="320" height="180"><g transform="translate(37.333333333333336,20.666666666666668)"><text x="10" y="-5" fill="black" font-weight="700">NED</text><text x="160" y="0" fill="black" font-size="12"></text><path d="M8.667,0ZM26,0L34.667,0M52,1.072L60.667,7.045L69.333,23.048L78,47.5L86.667,17.733M112.667,31.794L121.333,34.833M138.667,38L147.333,22.293L156,32.555L164.667,33.955L173.333,46.444L182,33.44L190.667,55.324L199.333,51.184L208,58.229L216.667,59.464L225.333,50.667L234,50.425L242.667,57.615L251.333,63.626L260,77.603L268.667,80.886" fill="none" stroke="#998ec3" stroke-width="3"></path><!--<Area>--><path d="M8.667,139.333ZM26,139.333L34.667,139.333M52,138.262L60.667,132.288L69.333,116.286L78,91.833L86.667,121.6M112.667,107.539L121.333,104.5M138.667,101.333L147.333,117.04L156,106.779L164.667,105.378L173.333,92.889L182,105.893L190.667,84.01L199.333,88.15L208,81.104L216.667,79.869L225.333,88.667L234,88.908L242.667,81.719L251.333,75.707L260,61.73L268.667,58.447" fill="none" stroke="#f1a340" stroke-width="3"></path><!--<Area>--><line x1="8.666666666666668" x2="8.666666666666668" y1="139.33333333333334" y2="147.33333333333334" stroke="black" class="s-wk7FLxcdhoYp"></line> <text x="8.666666666666668" y="139.33333333333334" dy="8" dominant-baseline="hanging" text-anchor="middle" fill="black" class="s-wk7FLxcdhoYp">1900</text><line x1="52" x2="52" y1="139.33333333333334" y2="147.33333333333334" stroke="black" class="s-wk7FLxcdhoYp"></line> <text x="52" y="139.33333333333334" dy="8" dominant-baseline="hanging" text-anchor="middle" fill="black" class="s-wk7FLxcdhoYp">1920</text><line x1="95.33333333333334" x2="95.33333333333334" y1="139.33333333333334" y2="147.33333333333334" stroke="black" class="s-wk7FLxcdhoYp"></line> <text x="95.33333333333334" y="139.33333333333334" dy="8" dominant-baseline="hanging" text-anchor="middle" fill="black" class="s-wk7FLxcdhoYp">1940</text><line x1="138.66666666666669" x2="138.66666666666669" y1="139.33333333333334" y2="147.33333333333334" stroke="black" class="s-wk7FLxcdhoYp"></line> <text x="138.66666666666669" y="139.33333333333334" dy="8" dominant-baseline="hanging" text-anchor="middle" fill="black" class="s-wk7FLxcdhoYp">1960</text><line x1="182" x2="182" y1="139.33333333333334" y2="147.33333333333334" stroke="black" class="s-wk7FLxcdhoYp"></line> <text x="182" y="139.33333333333334" dy="8" dominant-baseline="hanging" text-anchor="middle" fill="black" class="s-wk7FLxcdhoYp">1980</text><line x1="225.33333333333337" x2="225.33333333333337" y1="139.33333333333334" y2="147.33333333333334" stroke="black" class="s-wk7FLxcdhoYp"></line> <text x="225.33333333333337" y="139.33333333333334" dy="8" dominant-baseline="hanging" text-anchor="middle" fill="black" class="s-wk7FLxcdhoYp">2000</text><line x1="268.6666666666667" x2="268.6666666666667" y1="139.33333333333334" y2="147.33333333333334" stroke="black" class="s-wk7FLxcdhoYp"></line> <text x="268.6666666666667" y="139.33333333333334" dy="8" dominant-baseline="hanging" text-anchor="middle" fill="black" class="s-wk7FLxcdhoYp">2020</text><!--<Xaxis>--><text x="0" dx="-14" y="139.33333333333334" text-anchor="end" dominant-baseline="middle" fill="black" class="s-ZWQcE3W-YIrP">0</text> <line x1="-8" x2="0" y1="139.33333333333334" y2="139.33333333333334" stroke="black" class="s-ZWQcE3W-YIrP"></line><text x="0" dx="-14" y="111.46666666666668" text-anchor="end" dominant-baseline="middle" fill="black" class="s-ZWQcE3W-YIrP">20</text> <line x1="-8" x2="0" y1="111.46666666666668" y2="111.46666666666668" stroke="black" class="s-ZWQcE3W-YIrP"></line><text x="0" dx="-14" y="83.60000000000001" text-anchor="end" dominant-baseline="middle" fill="black" class="s-ZWQcE3W-YIrP">40</text> <line x1="-8" x2="0" y1="83.60000000000001" y2="83.60000000000001" stroke="black" class="s-ZWQcE3W-YIrP"></line><text x="0" dx="-14" y="55.73333333333334" text-anchor="end" dominant-baseline="middle" fill="black" class="s-ZWQcE3W-YIrP">60</text> <line x1="-8" x2="0" y1="55.73333333333334" y2="55.73333333333334" stroke="black" class="s-ZWQcE3W-YIrP"></line><text x="0" dx="-14" y="27.866666666666664" text-anchor="end" dominant-baseline="middle" fill="black" class="s-ZWQcE3W-YIrP">80</text> <line x1="-8" x2="0" y1="27.866666666666664" y2="27.866666666666664" stroke="black" class="s-ZWQcE3W-YIrP"></line><text x="0" dx="-14" y="0" text-anchor="end" dominant-baseline="middle" fill="black" class="s-ZWQcE3W-YIrP">100</text> <line x1="-8" x2="0" y1="0" y2="0" stroke="black" class="s-ZWQcE3W-YIrP"></line><!--<Yaxis>--></g></svg>