<svg width="320" height="180"><g transform="translate(37.333333333333336,20.666666666666668)"><text x="10" y="-5" fill="black" font-weight="700">POL</text><text x="160" y="0" fill="black" font-size="12"></text><path d="M34.667,0ZM60.667,2.144L69.333,16.72L78,24.588L86.667,16.449M112.667,25.667L121.333,24.523L130,32.656L138.667,21.841L147.333,24.881L156,29.126L164.667,18.257L173.333,18.174L182,33.695M199.333,31.179L208,36.046L216.667,32.933L225.333,43.216L234,44.529L242.667,54.757L251.333,57.06L260,56.567L268.667,66.285" fill="none" stroke="#998ec3" stroke-width="3"></path><!--<Area>--><path d="M34.667,139.333ZM60.667,137.19L69.333,122.613L78,114.745L86.667,122.884M112.667,113.667L121.333,114.811L130,106.677L138.667,117.492L147.333,114.452L156,110.207L164.667,121.076L173.333,121.159L182,105.638M199.333,108.154L208,103.287L216.667,106.4L225.333,96.118L234,94.804L242.667,84.576L251.333,82.273L260,82.766L268.667,73.049" fill="none" stroke="#f1a340" stroke-width="3"></path><!--<Area>--><line x1="8.666666666666668" x2="8.666666666666668" y1="139.33333333333334" y2="147.33333333333334" stroke="black" class="s-wk7FLxcdhoYp"></line> <text x="8.666666666666668" y="139.33333333333334" dy="8" dominant-baseline="hanging" text-anchor="middle" fill="black" class="s-wk7FLxcdhoYp">1900</text><line x1="52" x2="52" y1="139.33333333333334" y2="147.33333333333334" stroke="black" class="s-wk7FLxcdhoYp"></line> <text x="52" y="139.33333333333334" dy="8" dominant-baseline="hanging" text-anchor="middle" fill="black" class="s-wk7FLxcdhoYp">1920</text><line x1="95.33333333333334" x2="95.33333333333334" y1="139.33333333333334" y2="147.33333333333334" stroke="black" class="s-wk7FLxcdhoYp"></line> <text x="95.33333333333334" y="139.33333333333334" dy="8" dominant-baseline="hanging" text-anchor="middle" fill="black" class="s-wk7FLxcdhoYp">1940</text><line x1="138.66666666666669" x2="138.66666666666669" y1="139.33333333333334" y2="147.33333333333334" stroke="black" class="s-wk7FLxcdhoYp"></line> <text x="138.66666666666669" y="139.33333333333334" dy="8" dominant-baseline="hanging" text-anchor="middle" fill="black" class="s-wk7FLxcdhoYp">1960</text><line x1="182" x2="182" y1="139.33333333333334" y2="147.33333333333334" stroke="black" class="s-wk7FLxcdhoYp"></line> <text x="182" y="139.33333333333334" dy="8" dominant-baseline="hanging" text-anchor="middle" fill="black" class="s-wk7FLxcdhoYp">1980</text><line x1="225.33333333333337" x2="225.33333333333337" y1="139.33333333333334" y2="147.33333333333334" stroke="black" class="s-wk7FLxcdhoYp"></line> <text x="225.33333333333337" y="139.33333333333334" dy="8" dominant-baseline="hanging" text-anchor="middle" fill="black" class="s-wk7FLxcdhoYp">2000</text><line x1="268.6666666666667" x2="268.6666666666667" y1="139.33333333333334" y2="147.33333333333334" stroke="black" class="s-wk7FLxcdhoYp"></line> <text x="268.6666666666667" y="139.33333333333334" dy="8" dominant-baseline="hanging" text-anchor="middle" fill="black" class="s-wk7FLxcdhoYp">2020</text><!--<Xaxis>--><text x="0" dx="-14" y="139.33333333333334" text-anchor="end" dominant-baseline="middle" fill="black" class="s-ZWQcE3W-YIrP">0</text> <line x1="-8" x2="0" y1="139.33333333333334" y2="139.33333333333334" stroke="black" class="s-ZWQcE3W-YIrP"></line><text x="0" dx="-14" y="111.46666666666668" text-anchor="end" dominant-baseline="middle" fill="black" class="s-ZWQcE3W-YIrP">20</text> <line x1="-8" x2="0" y1="111.46666666666668" y2="111.46666666666668" stroke="black" class="s-ZWQcE3W-YIrP"></line><text x="0" dx="-14" y="83.60000000000001" text-anchor="end" dominant-baseline="middle" fill="black" class="s-ZWQcE3W-YIrP">40</text> <line x1="-8" x2="0" y1="83.60000000000001" y2="83.60000000000001" stroke="black" class="s-ZWQcE3W-YIrP"></line><text x="0" dx="-14" y="55.73333333333334" text-anchor="end" dominant-baseline="middle" fill="black" class="s-ZWQcE3W-YIrP">60</text> <line x1="-8" x2="0" y1="55.73333333333334" y2="55.73333333333334" stroke="black" class="s-ZWQcE3W-YIrP"></line><text x="0" dx="-14" y="27.866666666666664" text-anchor="end" dominant-baseline="middle" fill="black" class="s-ZWQcE3W-YIrP">80</text> <line x1="-8" x2="0" y1="27.866666666666664" y2="27.866666666666664" stroke="black" class="s-ZWQcE3W-YIrP"></line><text x="0" dx="-14" y="0" text-anchor="end" dominant-baseline="middle" fill="black" class="s-ZWQcE3W-YIrP">100</text> <line x1="-8" x2="0" y1="0" y2="0" stroke="black" class="s-ZWQcE3W-YIrP"></line><!--<Yaxis>--></g></svg>