<svg width="320" height="180"><g transform="translate(37.333333333333336,20.666666666666668)"><text x="10" y="-5" fill="black" font-weight="700">URS + RUS</text><text x="160" y="0" fill="black" font-size="12"></text><path d="M8.667,0ZM34.667,0ZM60.667,46.444ZM121.333,18.893L130,19.978L138.667,24.617L147.333,27.691L156,29.474L164.667,27.416L173.333,42.48L182,42.455M199.333,46.927ZM216.667,56.448L225.333,62.139L234,63.106L242.667,68.439L251.333,73.402L260,69.667" fill="none" stroke="#998ec3" stroke-width="3"></path><!--<Area>--><path d="M8.667,139.333ZM34.667,139.333ZM60.667,92.889ZM121.333,120.441L130,119.355L138.667,114.716L147.333,111.642L156,109.859L164.667,111.917L173.333,96.854L182,96.878M199.333,92.406ZM216.667,82.885L225.333,77.194L234,76.227L242.667,70.894L251.333,65.932L260,69.667" fill="none" stroke="#f1a340" stroke-width="3"></path><!--<Area>--><line x1="8.666666666666668" x2="8.666666666666668" y1="139.33333333333334" y2="147.33333333333334" stroke="black" class="s-wk7FLxcdhoYp"></line> <text x="8.666666666666668" y="139.33333333333334" dy="8" dominant-baseline="hanging" text-anchor="middle" fill="black" class="s-wk7FLxcdhoYp">1900</text><line x1="52" x2="52" y1="139.33333333333334" y2="147.33333333333334" stroke="black" class="s-wk7FLxcdhoYp"></line> <text x="52" y="139.33333333333334" dy="8" dominant-baseline="hanging" text-anchor="middle" fill="black" class="s-wk7FLxcdhoYp">1920</text><line x1="95.33333333333334" x2="95.33333333333334" y1="139.33333333333334" y2="147.33333333333334" stroke="black" class="s-wk7FLxcdhoYp"></line> <text x="95.33333333333334" y="139.33333333333334" dy="8" dominant-baseline="hanging" text-anchor="middle" fill="black" class="s-wk7FLxcdhoYp">1940</text><line x1="138.66666666666669" x2="138.66666666666669" y1="139.33333333333334" y2="147.33333333333334" stroke="black" class="s-wk7FLxcdhoYp"></line> <text x="138.66666666666669" y="139.33333333333334" dy="8" dominant-baseline="hanging" text-anchor="middle" fill="black" class="s-wk7FLxcdhoYp">1960</text><line x1="182" x2="182" y1="139.33333333333334" y2="147.33333333333334" stroke="black" class="s-wk7FLxcdhoYp"></line> <text x="182" y="139.33333333333334" dy="8" dominant-baseline="hanging" text-anchor="middle" fill="black" class="s-wk7FLxcdhoYp">1980</text><line x1="225.33333333333337" x2="225.33333333333337" y1="139.33333333333334" y2="147.33333333333334" stroke="black" class="s-wk7FLxcdhoYp"></line> <text x="225.33333333333337" y="139.33333333333334" dy="8" dominant-baseline="hanging" text-anchor="middle" fill="black" class="s-wk7FLxcdhoYp">2000</text><line x1="268.6666666666667" x2="268.6666666666667" y1="139.33333333333334" y2="147.33333333333334" stroke="black" class="s-wk7FLxcdhoYp"></line> <text x="268.6666666666667" y="139.33333333333334" dy="8" dominant-baseline="hanging" text-anchor="middle" fill="black" class="s-wk7FLxcdhoYp">2020</text><!--<Xaxis>--><text x="0" dx="-14" y="139.33333333333334" text-anchor="end" dominant-baseline="middle" fill="black" class="s-ZWQcE3W-YIrP">0</text> <line x1="-8" x2="0" y1="139.33333333333334" y2="139.33333333333334" stroke="black" class="s-ZWQcE3W-YIrP"></line><text x="0" dx="-14" y="111.46666666666668" text-anchor="end" dominant-baseline="middle" fill="black" class="s-ZWQcE3W-YIrP">20</text> <line x1="-8" x2="0" y1="111.46666666666668" y2="111.46666666666668" stroke="black" class="s-ZWQcE3W-YIrP"></line><text x="0" dx="-14" y="83.60000000000001" text-anchor="end" dominant-baseline="middle" fill="black" class="s-ZWQcE3W-YIrP">40</text> <line x1="-8" x2="0" y1="83.60000000000001" y2="83.60000000000001" stroke="black" class="s-ZWQcE3W-YIrP"></line><text x="0" dx="-14" y="55.73333333333334" text-anchor="end" dominant-baseline="middle" fill="black" class="s-ZWQcE3W-YIrP">60</text> <line x1="-8" x2="0" y1="55.73333333333334" y2="55.73333333333334" stroke="black" class="s-ZWQcE3W-YIrP"></line><text x="0" dx="-14" y="27.866666666666664" text-anchor="end" dominant-baseline="middle" fill="black" class="s-ZWQcE3W-YIrP">80</text> <line x1="-8" x2="0" y1="27.866666666666664" y2="27.866666666666664" stroke="black" class="s-ZWQcE3W-YIrP"></line><text x="0" dx="-14" y="0" text-anchor="end" dominant-baseline="middle" fill="black" class="s-ZWQcE3W-YIrP">100</text> <line x1="-8" x2="0" y1="0" y2="0" stroke="black" class="s-ZWQcE3W-YIrP"></line><!--<Yaxis>--></g><defs><pattern id="athnm" patternUnits="userSpaceOnUse" width="4" height="4"><path d="M 0,4 l 4,-4 M -1,1 l 2,-2 M 3,5 l 2,-2" stroke-width="1" shape-rendering="auto" stroke="#e34a33" stroke-linecap="square"></path></pattern></defs></svg>